<svg width="22" height="32" viewBox="0 0 22 32" fill="none" xmlns="http://www.w3.org/2000/svg">
<path d="M10.969 0C17.027 0 21.938 4.58971 21.938 10.2514V29.3366L21.3229 27.8838L19.5802 32L17.8374 27.8838L16.0947 32L14.352 27.8838L12.6092 32L10.8665 27.8838L9.12375 32L7.38101 27.8838L5.63827 32L3.89553 27.8838L2.1528 32L0.410056 27.8838L0 28.8523V10.2514C0 4.58971 4.91099 0 10.969 0Z" fill="#E14949"/>
<ellipse cx="6" cy="11" rx="2" ry="3" fill="white"/>
<ellipse cx="16" cy="11" rx="2" ry="3" fill="white"/>
<circle cx="16" cy="11" r="1" fill="#444444"/>
<circle cx="6" cy="11" r="1" fill="#444444"/>
</svg>
